<?xml version="1.0" encoding="utf-8"?>
<!-- Generator: Adobe Illustrator 26.5.0, SVG Export Plug-In . SVG Version: 6.00 Build 0)  -->
<svg version="1.1" id="Layer_1" xmlns="http://www.w3.org/2000/svg" xmlns:xlink="http://www.w3.org/1999/xlink" x="0px" y="0px"
	 viewBox="0 0 36 36" style="enable-background:new 0 0 36 36;" xml:space="preserve">
<style type="text/css">
	.st0{fill:#FFFFFF;}
</style>
<g>
	<path d="M7.91,9.58c0.3,0.32,0.54,0.6,0.81,0.84c0.08,0.07,0.25,0.06,0.38,0.06c2.2-0.02,4.4-0.04,6.6-0.06c0.14,0,0.28,0,0.52,0
		c-0.58,0.88-1.11,1.69-1.7,2.57c0.35,0,0.6,0,0.85,0c0.79-0.01,1.57-0.02,2.36-0.02c0.2,0,0.33-0.06,0.45-0.24
		c0.46-0.71,0.95-1.41,1.41-2.12c0.11-0.17,0.23-0.25,0.44-0.25c0.42,0.02,0.83,0,1.32,0c-0.57,0.85-1.12,1.66-1.72,2.56
		c0.28,0,0.47,0,0.67,0c0.86-0.01,1.72-0.02,2.58-0.06c0.15-0.01,0.35-0.12,0.44-0.24c0.49-0.69,0.95-1.4,1.45-2.09
		c0.08-0.11,0.26-0.21,0.41-0.22c0.41-0.03,0.83-0.01,1.32-0.01c-0.58,0.85-1.13,1.65-1.72,2.53c0.21,0,0.34,0,0.47,0
		c0.91-0.01,1.82-0.04,2.73-0.03c0.27,0,0.42-0.09,0.57-0.31c0.45-0.68,0.9-1.35,1.37-2.01c0.08-0.12,0.27-0.22,0.41-0.23
		c0.79-0.03,1.57-0.01,2.36-0.03c0.34-0.01,0.44,0.1,0.43,0.43c-0.02,2.81-0.03,5.63-0.03,8.44c0,4.16,0.02,8.31,0.03,12.47
		c0.01,1.42-0.45,2.12-1.78,2.64c-0.15,0.06-0.34,0.07-0.5,0.07c-5.37,0-10.75,0-16.12,0c-2.8,0-5.61-0.02-8.41,0.02
		c-1.61,0.02-2.68-1.3-2.68-2.55c-0.01-3.06-0.07-6.12-0.12-9.18c-0.05-3.05-0.1-6.1-0.18-9.14c-0.02-0.95-0.15-1.9-0.22-2.76
		c0.19-0.15,0.38-0.23,0.38-0.31c0-0.28,0.03-0.68-0.13-0.83C2.99,9.23,3.01,8.8,2.83,8.36C8.36,6.77,13.86,5.18,19.36,3.6
		c0.01,0.02,0.02,0.04,0.02,0.07c-0.21,0.07-0.42,0.15-0.7,0.25c0.77,0.64,1.5,1.26,2.3,1.92c-0.53,0.15-1,0.3-1.48,0.42
		c-0.08,0.02-0.19-0.08-0.28-0.15c-0.65-0.52-1.29-1.06-1.95-1.58c-0.09-0.07-0.25-0.13-0.35-0.1c-1.04,0.29-2.07,0.6-3.1,0.91
		c-0.02,0.01-0.03,0.03-0.08,0.09c0.72,0.6,1.45,1.19,2.24,1.84C13.28,8.04,10.62,8.8,7.91,9.58z M22.06,26.99
		c-5.87-0.07-11.7-0.15-17.53-0.22c-0.01,0.06-0.01,0.11-0.02,0.17C4.62,26.96,4.75,27,4.87,27c1.16,0.02,2.31,0.04,3.47,0.06
		c7.61,0.1,15.22,0.2,22.83,0.3c0.16,0,0.32-0.07,0.48-0.11c-0.16-0.05-0.32-0.13-0.48-0.13c-2.8-0.04-5.6-0.08-8.41-0.11
		c-0.14,0-0.28,0-0.44,0c0-0.69,0-1.32,0-1.95c3.13,0,6.23,0,9.33,0c0-0.05,0-0.1,0-0.15c-1.54-0.07-3.08-0.03-4.61-0.06
		c-1.57-0.03-3.13-0.04-4.7-0.06c0-0.67,0-1.29,0-1.95c0.27,0,0.5,0,0.73,0c2.75,0.03,5.51,0.07,8.26,0.1
		c0.12,0,0.25-0.04,0.37-0.06c0-0.06-0.01-0.11-0.01-0.17c-2.59-0.03-5.17-0.05-7.74-0.08c0-1.75,0-3.42,0-5.13c0.16,0,0.28,0,0.4,0
		c2.32,0.02,4.65,0.05,6.97,0.06c0.15,0,0.29-0.08,0.44-0.12c-0.15-0.04-0.3-0.12-0.45-0.12c-4.19-0.04-8.38-0.06-12.57-0.09
		c-4.62-0.03-9.24-0.06-13.87-0.09c-0.12,0-0.23,0.03-0.35,0.04c0,0.06,0.01,0.11,0.01,0.17c3.4,0.03,6.81,0.06,10.21,0.1
		c0,1.72,0,3.38,0,5.08c-3.42,0.03-6.81-0.1-10.19-0.06c0,0.07,0,0.13,0,0.2c5.85,0.06,11.69,0.12,17.55,0.18c0,0.67,0,1.3,0,1.91
		c-0.05,0.02-0.06,0.03-0.07,0.03c-5.74-0.06-11.48-0.12-17.22-0.18c-0.04,0-0.07,0-0.11,0c-0.01,0-0.03,0-0.04,0.01
		c-0.02,0.01-0.04,0.02-0.06,0.03c-0.01,0.01-0.02,0.02-0.02,0.03c-0.01,0.01-0.01,0.02-0.01,0.03c0,0.01,0,0.02,0.01,0.11
		c5.84,0.07,11.68,0.14,17.52,0.21C22.06,25.68,22.06,26.32,22.06,26.99z M4.53,29.12c-0.01,0.06-0.01,0.12-0.02,0.18
		c0.13,0.02,0.26,0.05,0.4,0.05c3.28,0.05,6.56,0.08,9.84,0.13c3.44,0.05,6.88,0.1,10.32,0.15c2.08,0.03,4.15,0.06,6.23,0.09
		c0.11,0,0.21-0.05,0.32-0.07c-0.01-0.05-0.02-0.1-0.02-0.16C22.58,29.37,13.56,29.24,4.53,29.12z M12.02,30.08
		c0.03,0.22,0.06,0.38,0.09,0.55c0.04,0,0.07-0.01,0.11-0.01c0.01-0.1,0.04-0.2,0.03-0.3c-0.03-0.18-0.06-0.51-0.13-0.52
		c-0.31-0.06-0.21,0.28-0.32,0.43c-0.01,0.02-0.04,0.02-0.08,0.04c-0.04-0.13-0.07-0.26-0.13-0.37c-0.03-0.06-0.11-0.11-0.18-0.14
		c-0.04-0.01-0.14,0.04-0.15,0.07c-0.01,0.26-0.01,0.53-0.01,0.79c0.05,0,0.09,0,0.14,0c0.02-0.16,0.04-0.32,0.07-0.55
		c0.09,0.23,0.16,0.4,0.23,0.57c0.03,0,0.06,0,0.1,0C11.85,30.47,11.92,30.3,12.02,30.08z M26.36,17.73
		c0.02,0.34-0.1,0.65,0.13,1.03c0.05-0.22,0.08-0.33,0.11-0.44c0.03-0.02,0.06-0.03,0.09-0.05c0.09,0.14,0.19,0.27,0.32,0.47
		c0.02-0.33,0.05-0.57,0.03-0.82c0-0.07-0.14-0.16-0.23-0.19C26.68,17.7,26.54,17.73,26.36,17.73z M4.99,9.26
		C4.91,8.92,4.82,8.68,4.55,8.73C4.41,8.76,4.22,8.98,4.19,9.14C4.14,9.37,4.33,9.56,4.57,9.53C4.72,9.51,4.85,9.35,4.99,9.26z
		 M7.91,30.22c-0.05-0.14-0.08-0.28-0.15-0.41c-0.03-0.05-0.13-0.09-0.21-0.09c-0.03,0-0.11,0.07-0.11,0.11
		c-0.01,0.24-0.01,0.48-0.01,0.73c0.04,0,0.09,0,0.13,0c0.02-0.17,0.03-0.33,0.06-0.57c0.1,0.24,0.17,0.42,0.29,0.7
		c0.12-0.27,0.2-0.45,0.3-0.66c0.03,0.22,0.06,0.39,0.08,0.55c0.03,0,0.06-0.01,0.09-0.01c0-0.27,0-0.54,0-0.82
		C7.95,29.62,8.1,30.08,7.91,30.22z M11.91,16.02c0,0.32,0,0.62,0,0.92c0.04,0,0.07,0,0.11,0c0.01-0.2,0.02-0.4,0.03-0.6
		c0.13,0.16,0.19,0.33,0.28,0.49c0.04,0.06,0.12,0.11,0.19,0.13c0.04,0.01,0.13-0.05,0.13-0.09c0-0.28-0.01-0.55-0.02-0.83
		c-0.05,0-0.09,0-0.14,0c-0.02,0.18-0.03,0.36-0.05,0.55C12.23,16.42,12.32,16.01,11.91,16.02z M12.41,28.32
		c0.02-0.3,0.05-0.51,0.03-0.72c-0.01-0.08-0.12-0.19-0.21-0.21c-0.14-0.03-0.3-0.01-0.42-0.01c0,0.32,0,0.59,0,0.85
		c0.03,0,0.06,0,0.09,0c0.03-0.11,0.07-0.21,0.13-0.42C12.17,28,12.27,28.13,12.41,28.32z M8.62,11.63
		c-0.14-0.12-0.26-0.3-0.41-0.34c-0.24-0.06-0.38,0.13-0.4,0.37c-0.01,0.25,0.14,0.4,0.38,0.41C8.4,12.08,8.56,11.97,8.62,11.63z
		 M7.16,26.11c0.02-0.29,0.06-0.51,0.04-0.73c-0.01-0.08-0.13-0.18-0.22-0.2c-0.15-0.03-0.31-0.01-0.46-0.01c0,0.32,0,0.6,0,0.88
		c0.03,0.01,0.06,0.02,0.09,0.02c0.05-0.12,0.09-0.23,0.18-0.44C6.93,25.81,7.03,25.94,7.16,26.11z M4.98,11.8
		c-0.03-0.36-0.12-0.59-0.4-0.54c-0.14,0.03-0.33,0.23-0.36,0.37c-0.04,0.25,0.16,0.43,0.41,0.39C4.77,12.01,4.9,11.86,4.98,11.8z
		 M7.77,28.28c0-0.33,0.02-0.57-0.01-0.8c-0.01-0.06-0.14-0.14-0.22-0.15c-0.12-0.03-0.26-0.01-0.38-0.01c0,0.31,0,0.58,0,0.85
		c0.03,0,0.06,0,0.08,0.01c0.04-0.1,0.07-0.21,0.14-0.4C7.51,27.94,7.61,28.06,7.77,28.28z M11.39,18.52c0-0.32,0-0.6,0-0.88
		c-0.03,0-0.07,0-0.1,0c-0.01,0.18-0.02,0.37-0.03,0.57c-0.26-0.15-0.14-0.66-0.59-0.58c0,0.32,0,0.61,0,0.9c0.03,0,0.07,0,0.1,0.01
		c0.03-0.18,0.06-0.36,0.09-0.54C11.1,18.13,10.98,18.57,11.39,18.52z M10.06,30.69c0.02-0.31,0.04-0.54,0.03-0.77
		c0-0.06-0.12-0.16-0.2-0.17c-0.14-0.03-0.28-0.01-0.4-0.01c0,0.32,0,0.59,0,0.86c0.03,0,0.05,0,0.08,0
		c0.04-0.12,0.08-0.23,0.15-0.43C9.84,30.35,9.93,30.48,10.06,30.69z M7.25,16c0,0.32,0,0.61,0,0.9c0.03,0,0.06,0,0.09,0
		c0.03-0.11,0.05-0.22,0.11-0.45c0.15,0.2,0.25,0.34,0.41,0.55c0-0.34,0.01-0.58-0.01-0.82c-0.01-0.07-0.12-0.16-0.2-0.17
		C7.51,15.98,7.36,16,7.25,16z M13.62,30.11c0.02,0,0.04-0.01,0.06-0.01c0.07,0.15,0.13,0.32,0.23,0.45
		c0.05,0.06,0.19,0.04,0.28,0.06c0-0.27,0-0.53,0-0.8c-0.04,0-0.07,0-0.11,0c-0.02,0.08-0.04,0.15-0.05,0.23
		c-0.01,0.09-0.01,0.18-0.02,0.3c-0.32-0.54-0.32-0.54-0.6-0.48c0.01,0.26,0.03,0.53,0.04,0.79c0.04,0,0.09,0,0.13-0.01
		C13.59,30.46,13.6,30.29,13.62,30.11z M8.39,26.18c0.28-0.11,0.55-0.15,0.7-0.31c0.09-0.09,0.06-0.43-0.04-0.52
		c-0.15-0.14-0.41-0.16-0.66-0.24C8.39,25.5,8.39,25.78,8.39,26.18z M26.87,23.53c0.27,0.14,0.12,0.62,0.53,0.59
		c0-0.32,0-0.61,0-0.91c-0.03,0-0.06,0-0.09,0c-0.01,0.18-0.02,0.36-0.04,0.55c-0.25-0.16-0.13-0.61-0.54-0.58c0,0.32,0,0.62,0,0.92
		c0.03,0,0.06,0,0.1,0.01C26.85,23.92,26.86,23.74,26.87,23.53z M28.39,18.21c-0.03-0.29-0.15-0.5-0.45-0.49
		c-0.3,0.01-0.42,0.22-0.42,0.5c0.01,0.28,0.13,0.47,0.44,0.46C28.29,18.67,28.37,18.45,28.39,18.21z M13.57,16.97
		c0.27-0.04,0.39-0.21,0.38-0.48c-0.01-0.28-0.12-0.49-0.43-0.48c-0.32,0.01-0.4,0.24-0.4,0.51C13.13,16.8,13.28,16.95,13.57,16.97z
		 M5.7,28.25c0.26-0.1,0.51-0.15,0.66-0.28c0.08-0.07,0.07-0.38-0.01-0.46c-0.16-0.14-0.4-0.18-0.65-0.28
		C5.7,27.6,5.7,27.85,5.7,28.25z M11.89,25.2c-0.35,0-0.49,0.18-0.51,0.46c-0.02,0.29,0.19,0.49,0.48,0.48
		c0.31-0.01,0.44-0.2,0.43-0.47C12.28,25.38,12.14,25.2,11.89,25.2z M7.82,25.15c-0.32,0.01-0.49,0.19-0.49,0.49
		c0.01,0.3,0.18,0.45,0.47,0.46c0.26,0.01,0.45-0.22,0.43-0.49C8.21,25.32,8.07,25.15,7.82,25.15z M5.75,25.17c0,0.31,0,0.59,0,0.83
		c0.17-0.12,0.32-0.22,0.45-0.34c0.07-0.07,0.15-0.18,0.14-0.26c-0.01-0.08-0.1-0.2-0.19-0.23C6.03,25.14,5.88,25.17,5.75,25.17z
		 M5.53,23.85c0.03,0.04,0.06,0.08,0.09,0.11c0.2-0.1,0.44-0.17,0.58-0.32c0.08-0.09,0.06-0.4-0.03-0.49
		c-0.14-0.14-0.38-0.17-0.63-0.27C5.53,23.28,5.53,23.57,5.53,23.85z M7.3,23.87c-0.08-0.26-0.15-0.53-0.26-0.78
		c-0.07-0.17-0.21-0.19-0.29,0c-0.11,0.25-0.18,0.52-0.27,0.78C6.77,23.61,7.01,23.64,7.3,23.87z M9.15,16.41
		c-0.01-0.23-0.12-0.43-0.43-0.43c-0.3,0.01-0.39,0.2-0.4,0.47c0,0.3,0.17,0.49,0.43,0.48C9.04,16.91,9.15,16.73,9.15,16.41z
		 M11.08,30.58c-0.08-0.25-0.16-0.5-0.26-0.74c-0.02-0.04-0.25-0.04-0.26-0.01c-0.11,0.23-0.19,0.48-0.29,0.73
		C10.56,30.37,10.8,30.41,11.08,30.58z M10.68,27.82c0.01,0.25,0.15,0.42,0.42,0.43c0.27,0,0.42-0.16,0.42-0.44
		c0-0.28-0.13-0.44-0.42-0.44C10.81,27.35,10.69,27.52,10.68,27.82z M9.65,17.03c0.27-0.12,0.52-0.16,0.64-0.3
		c0.09-0.11,0.08-0.42-0.02-0.53c-0.12-0.14-0.38-0.16-0.62-0.26C9.65,16.33,9.65,16.61,9.65,17.03z M24.99,23.61
		c-0.03-0.23-0.1-0.45-0.4-0.46c-0.33-0.01-0.41,0.21-0.41,0.48c0,0.26,0.11,0.47,0.39,0.47C24.88,24.12,24.96,23.89,24.99,23.61z
		 M7.31,30.64c-0.12-0.35-0.2-0.61-0.3-0.84c-0.02-0.04-0.24-0.06-0.25-0.03c-0.11,0.24-0.2,0.5-0.29,0.75
		c0.02,0.04,0.05,0.08,0.07,0.12C6.77,30.21,7,30.41,7.31,30.64z M10.12,18.04c-0.16-0.06-0.27-0.11-0.39-0.16
		c0.01-0.02,0.01-0.05,0.02-0.07c0.13-0.03,0.26-0.06,0.39-0.1c-0.21-0.04-0.48-0.31-0.58,0.06c-0.06,0.22-0.01,0.48-0.01,0.72
		c0.23,0,0.41,0,0.66,0c-0.2-0.11-0.33-0.18-0.46-0.25C9.86,18.18,9.97,18.12,10.12,18.04z M13.21,30.61
		c-0.08-0.25-0.16-0.5-0.26-0.74c-0.02-0.04-0.25-0.04-0.27,0c-0.11,0.23-0.19,0.48-0.28,0.72C12.7,30.36,12.93,30.43,13.21,30.61z
		 M7.28,18.24c-0.02,0.04-0.04,0.08-0.06,0.12c0.15,0.05,0.3,0.13,0.45,0.14c0.09,0,0.18-0.13,0.27-0.2
		c-0.14-0.16-0.28-0.33-0.48-0.56c0.17,0.04,0.29,0.06,0.42,0.09c0.02-0.02,0.04-0.05,0.05-0.07c-0.1-0.06-0.2-0.18-0.3-0.18
		c-0.11,0-0.29,0.08-0.32,0.17c-0.17,0.4,0.35,0.3,0.48,0.63C7.56,18.32,7.42,18.28,7.28,18.24z M26.17,23.18c-0.05,0-0.09,0-0.14,0
		c-0.01,0.16,0,0.33-0.04,0.48c-0.03,0.11-0.11,0.21-0.17,0.31c-0.06-0.1-0.16-0.2-0.18-0.31c-0.04-0.16-0.03-0.33-0.04-0.5
		c-0.04,0-0.08,0-0.12,0c0,0.25-0.03,0.5,0.02,0.73c0.02,0.09,0.22,0.2,0.34,0.2c0.11,0,0.3-0.12,0.32-0.22
		C26.2,23.66,26.17,23.42,26.17,23.18z M23.22,23.28c0.2,0.05,0.32,0.08,0.44,0.11c0.02-0.03,0.03-0.06,0.05-0.09
		c-0.1-0.06-0.21-0.17-0.31-0.17c-0.11,0.01-0.21,0.13-0.31,0.2c0.13,0.17,0.26,0.35,0.45,0.61c-0.18-0.06-0.31-0.1-0.45-0.14
		c-0.02,0.02-0.04,0.04-0.06,0.07c0.09,0.07,0.18,0.21,0.27,0.21c0.14-0.01,0.34-0.08,0.39-0.18
		C23.86,23.51,23.36,23.61,23.22,23.28z M27.96,24.12c0.53,0.03,0.69-0.09,0.68-0.46c-0.01-0.37-0.19-0.48-0.68-0.42
		C27.96,23.52,27.96,23.81,27.96,24.12z M8.61,28.17c0-0.03,0.01-0.05,0.01-0.08c-0.12-0.04-0.25-0.08-0.37-0.11
		c0-0.03,0-0.06-0.01-0.09c0.12-0.04,0.24-0.07,0.43-0.13c-0.18-0.07-0.3-0.11-0.51-0.19c0.21-0.07,0.33-0.1,0.45-0.14
		c0-0.02-0.01-0.05-0.01-0.07c-0.18,0-0.36,0-0.55,0c0,0.29,0,0.54,0,0.82C8.26,28.17,8.44,28.17,8.61,28.17z M10.78,25.51
		c-0.02-0.31-0.23-0.41-0.41-0.3c-0.14,0.08-0.28,0.31-0.28,0.48c0,0.14,0.17,0.35,0.31,0.41c0.17,0.08,0.36,0,0.45-0.24
		c-0.2,0-0.45,0.06-0.5-0.01c-0.12-0.16-0.11-0.39,0.11-0.54C10.57,25.38,10.67,25.45,10.78,25.51z M12.08,17.92
		c0.01-0.04,0.02-0.07,0.03-0.11c0.12-0.03,0.24-0.06,0.35-0.09c0-0.02-0.01-0.05-0.01-0.07c-0.18,0-0.36,0-0.54,0
		c0,0.3,0,0.58,0,0.9c0.21-0.01,0.39-0.03,0.56-0.04c0-0.02,0-0.04-0.01-0.07c-0.12-0.05-0.24-0.11-0.36-0.16
		c0.12-0.08,0.23-0.16,0.35-0.25C12.32,18,12.2,17.96,12.08,17.92z M8.44,23.03c0,0.3,0,0.57,0,0.88c0.2-0.01,0.38-0.02,0.55-0.03
		c0-0.02,0-0.04,0-0.06c-0.12-0.05-0.24-0.11-0.36-0.16c0.12-0.08,0.23-0.16,0.34-0.23c-0.12-0.06-0.24-0.11-0.45-0.21
		c0.24-0.06,0.36-0.09,0.47-0.12c0-0.02-0.01-0.05-0.01-0.07C8.81,23.03,8.64,23.03,8.44,23.03z M6.15,16.86
		c0.18-0.14,0.34-0.25,0.47-0.38c0.06-0.06,0.11-0.17,0.1-0.25c-0.01-0.08-0.09-0.19-0.16-0.21C6.44,15.98,6.29,16,6.15,15.99
		C6.15,16.32,6.15,16.6,6.15,16.86z M9.04,17.9c0.01-0.3-0.16-0.37-0.37-0.32c-0.3,0.08-0.32,0.34-0.28,0.59
		c0.03,0.24,0.18,0.39,0.43,0.34c0.11-0.02,0.2-0.14,0.3-0.21c-0.02-0.02-0.04-0.03-0.07-0.05c-0.14,0.02-0.27,0.03-0.41,0.05
		c0-0.19,0-0.39,0-0.66C8.84,17.78,8.94,17.84,9.04,17.9z M9.23,30.17c-0.18-0.08-0.3-0.12-0.43-0.17c0.01-0.03,0.01-0.05,0.02-0.08
		c0.13-0.03,0.25-0.06,0.38-0.09c0-0.02-0.01-0.05-0.01-0.07c-0.18,0-0.36,0-0.54,0c0,0.29,0,0.55,0,0.85
		c0.21-0.01,0.38-0.02,0.56-0.03c0-0.02,0-0.04-0.01-0.06c-0.14-0.05-0.27-0.1-0.41-0.15c0.01-0.03,0.01-0.06,0.02-0.09
		C8.93,30.24,9.05,30.21,9.23,30.17z M9.55,27.64c0.02-0.03,0.05-0.07,0.07-0.1c-0.12-0.07-0.26-0.22-0.34-0.19
		c-0.14,0.05-0.31,0.18-0.36,0.32c-0.07,0.21-0.03,0.45,0.24,0.53c0.19,0.05,0.37,0.02,0.49-0.3c-0.19,0.09-0.3,0.14-0.47,0.22
		c0-0.24,0-0.44,0-0.7C9.36,27.52,9.46,27.58,9.55,27.64z M6.32,29.97c-0.05-0.3-0.27-0.4-0.44-0.25c-0.13,0.11-0.2,0.38-0.18,0.56
		c0.01,0.1,0.25,0.21,0.4,0.26c0.07,0.02,0.18-0.11,0.32-0.21c-0.25,0-0.39,0-0.52,0c0.01-0.17,0.01-0.34,0.02-0.57
		C6.12,29.86,6.22,29.91,6.32,29.97z M10.49,27.41c-0.22,0-0.44,0-0.56,0c0.07,0.28,0.13,0.55,0.2,0.84
		C10.43,28.03,10.01,27.55,10.49,27.41z M29.08,18.49c-0.01-0.26-0.03-0.49-0.04-0.72c-0.05,0-0.09,0-0.14,0
		c-0.01,0.29-0.03,0.58-0.04,0.88c0.22,0,0.39,0,0.55,0c0-0.02,0.01-0.05,0.01-0.07C29.32,18.55,29.21,18.52,29.08,18.49z
		 M7.83,23.91C7.92,23.6,8,23.3,8.07,23.03c-0.14,0-0.37,0-0.59,0C8.01,23.18,7.56,23.67,7.83,23.91z M30.13,18.5
		c-0.02-0.26-0.03-0.5-0.05-0.73c-0.04,0-0.08,0-0.12,0.01c0,0.3,0,0.6,0,0.93c0.18-0.01,0.35-0.02,0.51-0.03c0-0.03,0-0.06,0-0.09
		C30.36,18.56,30.25,18.53,30.13,18.5z M6.78,27.32c-0.03,0-0.07,0.01-0.1,0.01c0,0.28,0,0.56,0,0.84c0.03,0,0.07,0,0.1,0
		C6.78,27.88,6.78,27.6,6.78,27.32z"/>
	<path d="M27.09,1.38c1.61-0.46,3.15-0.9,4.74-1.35c0.22,0.84,0.44,1.64,0.66,2.5c-0.33,0.1-0.63,0.18-0.93,0.27
		c-0.6,0.17-1.2,0.36-1.8,0.51c-0.12,0.03-0.3,0.02-0.39-0.05C28.62,2.67,27.89,2.05,27.09,1.38z"/>
	<path d="M22.04,2.83c0.55-0.16,1.06-0.31,1.57-0.46c0.8,0.67,1.58,1.32,2.41,2.02c-0.5,0.15-0.94,0.29-1.39,0.39
		c-0.12,0.03-0.3-0.08-0.41-0.17C23.49,4.03,22.79,3.44,22.04,2.83z"/>
	<path class="st0" d="M22.06,26.99c0-0.67,0-1.3,0-2c-5.83-0.07-11.68-0.14-17.52-0.21c-0.01-0.09-0.01-0.1-0.01-0.11
		c0-0.01,0.01-0.02,0.01-0.03c0.01-0.01,0.01-0.02,0.02-0.03c0.02-0.01,0.04-0.02,0.06-0.03c0.01,0,0.02-0.01,0.04-0.01
		c0.04,0,0.07,0,0.11,0c5.74,0.06,11.48,0.12,17.22,0.18c0.01,0,0.02-0.01,0.07-0.03c0-0.61,0-1.25,0-1.91
		c-5.86-0.06-11.7-0.12-17.55-0.18c0-0.07,0-0.13,0-0.2c3.39-0.03,6.78,0.09,10.19,0.06c0-1.7,0-3.37,0-5.08
		c-3.4-0.03-6.81-0.06-10.21-0.1c0-0.06-0.01-0.11-0.01-0.17c0.12-0.01,0.23-0.04,0.35-0.04c4.62,0.03,9.24,0.06,13.87,0.09
		c4.19,0.03,8.38,0.06,12.57,0.09c0.15,0,0.3,0.08,0.45,0.12c-0.15,0.04-0.29,0.12-0.44,0.12c-2.32-0.01-4.65-0.04-6.97-0.06
		c-0.12,0-0.24,0-0.4,0c0,1.71,0,3.38,0,5.13c2.57,0.02,5.16,0.05,7.74,0.08c0,0.06,0.01,0.11,0.01,0.17
		c-0.12,0.02-0.25,0.06-0.37,0.06c-2.75-0.03-5.51-0.06-8.26-0.1c-0.23,0-0.46,0-0.73,0c0,0.65,0,1.27,0,1.95
		c1.56,0.02,3.13,0.03,4.7,0.06c1.54,0.03,3.08-0.01,4.61,0.06c0,0.05,0,0.1,0,0.15c-3.1,0-6.2,0-9.33,0c0,0.63,0,1.26,0,1.95
		c0.15,0,0.3,0,0.44,0c2.8,0.03,5.61,0.07,8.41,0.11c0.16,0,0.32,0.09,0.48,0.13c-0.16,0.04-0.32,0.11-0.48,0.11
		c-7.61-0.09-15.22-0.19-22.83-0.3C7.18,27.04,6.02,27.02,4.87,27c-0.12,0-0.24-0.04-0.36-0.07c0.01-0.06,0.01-0.11,0.02-0.17
		C10.36,26.84,16.19,26.91,22.06,26.99z M14.97,22.54c2.93,0,5.81,0,8.7,0c0-1.69,0-3.37,0-5.09c-2.91,0-5.8,0-8.7,0
		C14.97,19.13,14.97,20.8,14.97,22.54z"/>
	<path class="st0" d="M4.53,29.12c9.02,0.12,18.05,0.25,27.07,0.37c0.01,0.05,0.02,0.1,0.02,0.16c-0.11,0.03-0.21,0.08-0.32,0.07
		c-2.08-0.03-4.15-0.06-6.23-0.09c-3.44-0.05-6.88-0.1-10.32-0.15c-3.28-0.05-6.56-0.09-9.84-0.13c-0.13,0-0.26-0.03-0.4-0.05
		C4.52,29.24,4.52,29.18,4.53,29.12z"/>
	<path class="st0" d="M12.02,30.08c-0.09,0.22-0.16,0.39-0.23,0.56c-0.03,0-0.06,0-0.1,0c-0.07-0.17-0.14-0.34-0.23-0.57
		c-0.03,0.23-0.05,0.39-0.07,0.55c-0.05,0-0.09,0-0.14,0c0-0.26,0-0.53,0.01-0.79c0-0.03,0.11-0.08,0.15-0.07
		c0.07,0.02,0.15,0.08,0.18,0.14c0.06,0.11,0.09,0.25,0.13,0.37c0.04-0.02,0.07-0.03,0.08-0.04c0.11-0.15,0.01-0.49,0.32-0.43
		c0.08,0.02,0.1,0.34,0.13,0.52c0.02,0.1-0.02,0.2-0.03,0.3c-0.04,0-0.07,0.01-0.11,0.01C12.08,30.46,12.05,30.3,12.02,30.08z"/>
	<path class="st0" d="M26.36,17.73c0.18,0,0.32-0.02,0.45,0.01c0.09,0.02,0.23,0.12,0.23,0.19c0.02,0.24-0.01,0.49-0.03,0.82
		c-0.14-0.2-0.23-0.34-0.32-0.47c-0.03,0.02-0.06,0.03-0.09,0.05c-0.03,0.11-0.05,0.23-0.11,0.44
		C26.26,18.38,26.38,18.07,26.36,17.73z"/>
	<path class="st0" d="M4.99,9.26C4.85,9.35,4.72,9.51,4.57,9.53C4.33,9.56,4.14,9.37,4.19,9.14c0.03-0.16,0.22-0.38,0.36-0.41
		C4.82,8.68,4.91,8.92,4.99,9.26z"/>
	<path class="st0" d="M7.91,30.22c0.19-0.14,0.04-0.6,0.48-0.48c0,0.27,0,0.55,0,0.82c-0.03,0-0.06,0.01-0.09,0.01
		c-0.02-0.16-0.05-0.32-0.08-0.55c-0.1,0.22-0.18,0.39-0.3,0.66c-0.12-0.28-0.19-0.46-0.29-0.7c-0.02,0.24-0.04,0.4-0.06,0.57
		c-0.04,0-0.09,0-0.13,0c0-0.24-0.01-0.48,0.01-0.73c0-0.04,0.08-0.11,0.11-0.11c0.07,0.01,0.17,0.04,0.21,0.09
		C7.83,29.94,7.86,30.08,7.91,30.22z"/>
	<path class="st0" d="M11.91,16.02c0.41-0.01,0.32,0.41,0.54,0.57c0.02-0.19,0.03-0.37,0.05-0.55c0.05,0,0.09,0,0.14,0
		c0.01,0.28,0.02,0.55,0.02,0.83c0,0.03-0.1,0.1-0.13,0.09c-0.07-0.02-0.16-0.07-0.19-0.13c-0.09-0.16-0.16-0.33-0.28-0.49
		c-0.01,0.2-0.02,0.4-0.03,0.6c-0.04,0-0.07,0-0.11,0C11.91,16.63,11.91,16.34,11.91,16.02z"/>
	<path class="st0" d="M12.41,28.32c-0.14-0.19-0.24-0.31-0.38-0.5c-0.06,0.21-0.1,0.31-0.13,0.42c-0.03,0-0.06,0-0.09,0
		c0-0.27,0-0.54,0-0.85c0.12,0,0.28-0.03,0.42,0.01c0.09,0.02,0.2,0.13,0.21,0.21C12.46,27.81,12.43,28.01,12.41,28.32z"/>
	<path class="st0" d="M8.62,11.63c-0.06,0.33-0.22,0.45-0.43,0.44c-0.24-0.01-0.39-0.16-0.38-0.41c0.01-0.24,0.15-0.43,0.4-0.37
		C8.36,11.33,8.49,11.52,8.62,11.63z"/>
	<path class="st0" d="M7.16,26.11c-0.13-0.17-0.23-0.3-0.37-0.48c-0.08,0.21-0.13,0.32-0.18,0.44c-0.03-0.01-0.06-0.02-0.09-0.02
		c0-0.28,0-0.56,0-0.88c0.16,0,0.32-0.02,0.46,0.01c0.09,0.02,0.21,0.13,0.22,0.2C7.22,25.6,7.18,25.82,7.16,26.11z"/>
	<path class="st0" d="M4.98,11.8c-0.08,0.06-0.2,0.21-0.34,0.23c-0.25,0.03-0.45-0.14-0.41-0.39c0.02-0.15,0.21-0.35,0.36-0.37
		C4.85,11.21,4.94,11.44,4.98,11.8z"/>
	<path class="st0" d="M7.77,28.28c-0.16-0.21-0.25-0.33-0.38-0.51c-0.07,0.2-0.11,0.3-0.14,0.4c-0.03,0-0.06,0-0.08-0.01
		c0-0.27,0-0.54,0-0.85c0.12,0,0.25-0.02,0.38,0.01c0.08,0.02,0.22,0.09,0.22,0.15C7.78,27.71,7.77,27.94,7.77,28.28z"/>
	<path class="st0" d="M11.39,18.52c-0.41,0.05-0.29-0.39-0.53-0.54c-0.03,0.18-0.06,0.36-0.09,0.54c-0.03,0-0.07,0-0.1-0.01
		c0-0.29,0-0.58,0-0.9c0.44-0.08,0.33,0.43,0.59,0.58c0.01-0.2,0.02-0.38,0.03-0.57c0.03,0,0.07,0,0.1,0
		C11.39,17.92,11.39,18.2,11.39,18.52z"/>
	<path class="st0" d="M10.06,30.69c-0.14-0.21-0.22-0.34-0.34-0.52c-0.07,0.2-0.11,0.32-0.15,0.43c-0.03,0-0.05,0-0.08,0
		c0-0.27,0-0.54,0-0.86c0.12,0,0.27-0.02,0.4,0.01c0.08,0.02,0.2,0.11,0.2,0.17C10.11,30.15,10.08,30.37,10.06,30.69z"/>
	<path class="st0" d="M7.25,16c0.11,0,0.26-0.02,0.39,0.01c0.08,0.02,0.19,0.11,0.2,0.17c0.02,0.24,0.01,0.48,0.01,0.82
		c-0.16-0.22-0.26-0.35-0.41-0.55c-0.05,0.22-0.08,0.33-0.11,0.45c-0.03,0-0.06,0-0.09,0C7.25,16.61,7.25,16.32,7.25,16z"/>
	<path class="st0" d="M13.62,30.11c-0.01,0.18-0.02,0.35-0.03,0.53c-0.04,0-0.09,0-0.13,0.01c-0.01-0.27-0.03-0.53-0.04-0.79
		c0.27-0.06,0.27-0.06,0.6,0.48c0.01-0.13,0.01-0.22,0.02-0.3c0.01-0.08,0.03-0.15,0.05-0.23c0.04,0,0.07,0,0.11,0
		c0,0.27,0,0.53,0,0.8c-0.1-0.02-0.24,0-0.28-0.06c-0.1-0.13-0.15-0.3-0.23-0.45C13.66,30.1,13.64,30.11,13.62,30.11z"/>
	<path class="st0" d="M8.39,26.18c0-0.4,0-0.68,0-1.07c0.25,0.08,0.52,0.1,0.66,0.24c0.1,0.09,0.12,0.44,0.04,0.52
		C8.94,26.03,8.67,26.07,8.39,26.18z M8.52,25.91c0.39,0.05,0.46-0.12,0.42-0.34c-0.02-0.09-0.17-0.16-0.25-0.24
		C8.63,25.51,8.58,25.69,8.52,25.91z"/>
	<path class="st0" d="M26.87,23.53c-0.01,0.21-0.03,0.39-0.04,0.58c-0.03,0-0.06,0-0.1-0.01c0-0.3,0-0.6,0-0.92
		c0.41-0.02,0.29,0.42,0.54,0.58c0.01-0.19,0.03-0.37,0.04-0.55c0.03,0,0.06,0,0.09,0c0,0.29,0,0.59,0,0.91
		C26.99,24.15,27.14,23.66,26.87,23.53z"/>
	<path class="st0" d="M28.39,18.21c-0.03,0.25-0.11,0.47-0.43,0.47c-0.31,0.01-0.44-0.18-0.44-0.46c-0.01-0.28,0.12-0.49,0.42-0.5
		C28.25,17.71,28.37,17.91,28.39,18.21z M27.63,18.23c0.14,0.14,0.24,0.22,0.33,0.31c0.07-0.11,0.2-0.22,0.2-0.33
		c0-0.11-0.12-0.23-0.19-0.34C27.87,17.97,27.78,18.08,27.63,18.23z"/>
	<path class="st0" d="M13.57,16.97c-0.29-0.02-0.44-0.17-0.44-0.45c0-0.27,0.08-0.5,0.4-0.51c0.31-0.01,0.42,0.2,0.43,0.48
		C13.96,16.77,13.84,16.93,13.57,16.97z M13.84,16.49c-0.12-0.14-0.21-0.24-0.29-0.33c-0.07,0.11-0.2,0.22-0.2,0.32
		c0,0.11,0.12,0.22,0.19,0.33C13.62,16.72,13.71,16.63,13.84,16.49z"/>
	<path class="st0" d="M5.7,28.25c0-0.4,0-0.65,0-1.03c0.26,0.1,0.5,0.15,0.65,0.28c0.08,0.07,0.09,0.39,0.01,0.46
		C6.2,28.1,5.96,28.15,5.7,28.25z M6.02,27.42c-0.03,0.02-0.07,0.05-0.1,0.07c0,0.17,0,0.34,0,0.52c0.04,0.01,0.08,0.03,0.11,0.04
		c0.06-0.11,0.17-0.22,0.16-0.32C6.2,27.63,6.09,27.52,6.02,27.42z"/>
	<path class="st0" d="M11.89,25.2c0.25,0,0.4,0.18,0.4,0.46c0,0.28-0.13,0.47-0.43,0.47c-0.29,0.01-0.49-0.19-0.48-0.48
		C11.4,25.38,11.53,25.2,11.89,25.2z M12.18,25.68c-0.15-0.15-0.25-0.24-0.35-0.34c-0.08,0.11-0.23,0.22-0.22,0.32
		c0.01,0.12,0.15,0.23,0.23,0.34C11.93,25.91,12.03,25.82,12.18,25.68z"/>
	<path class="st0" d="M7.82,25.15c0.25,0,0.39,0.18,0.41,0.46c0.02,0.27-0.18,0.5-0.43,0.49c-0.29-0.01-0.46-0.16-0.47-0.46
		C7.32,25.34,7.49,25.16,7.82,25.15z M7.44,25.62c0.15,0.15,0.24,0.24,0.33,0.33c0.08-0.11,0.22-0.22,0.22-0.34
		C8,25.51,7.87,25.4,7.79,25.3C7.69,25.39,7.59,25.49,7.44,25.62z"/>
	<path class="st0" d="M5.75,25.17c0.12,0,0.27-0.03,0.4,0.01c0.08,0.02,0.18,0.14,0.19,0.23c0.01,0.08-0.07,0.19-0.14,0.26
		C6.07,25.78,5.92,25.88,5.75,26C5.75,25.76,5.75,25.47,5.75,25.17z"/>
	<path class="st0" d="M5.53,23.85c0-0.29,0-0.57,0-0.97c0.25,0.1,0.5,0.14,0.63,0.27c0.09,0.09,0.11,0.4,0.03,0.49
		c-0.14,0.16-0.38,0.22-0.58,0.32C5.59,23.93,5.56,23.89,5.53,23.85z M5.71,23.7c0.04,0.02,0.08,0.05,0.12,0.07
		c0.07-0.12,0.2-0.24,0.2-0.36c0-0.11-0.14-0.23-0.21-0.34c-0.04,0.02-0.07,0.04-0.11,0.06C5.71,23.33,5.71,23.51,5.71,23.7z"/>
	<path class="st0" d="M7.3,23.87c-0.29-0.23-0.53-0.26-0.82,0c0.09-0.26,0.16-0.53,0.27-0.78c0.08-0.18,0.22-0.16,0.29,0
		C7.14,23.35,7.21,23.61,7.3,23.87z"/>
	<path class="st0" d="M9.15,16.41c0,0.32-0.11,0.5-0.4,0.52c-0.27,0.02-0.44-0.18-0.43-0.48c0-0.26,0.1-0.46,0.4-0.47
		C9.04,15.98,9.14,16.18,9.15,16.41z M9.04,16.46c-0.13-0.14-0.21-0.23-0.3-0.33c-0.07,0.11-0.21,0.22-0.21,0.32
		c0,0.11,0.13,0.22,0.2,0.33C8.82,16.69,8.91,16.6,9.04,16.46z"/>
	<path class="st0" d="M11.08,30.58c-0.28-0.18-0.52-0.22-0.81-0.01c0.09-0.24,0.17-0.49,0.29-0.73c0.02-0.04,0.25-0.03,0.26,0.01
		C10.93,30.09,11,30.34,11.08,30.58z"/>
	<path class="st0" d="M10.68,27.82c0.01-0.29,0.13-0.46,0.42-0.46c0.29,0,0.41,0.17,0.42,0.44c0,0.28-0.14,0.45-0.42,0.44
		C10.83,28.24,10.68,28.07,10.68,27.82z M10.79,27.82c0.13,0.12,0.22,0.2,0.31,0.28c0.07-0.11,0.18-0.22,0.19-0.33
		c0-0.09-0.13-0.18-0.21-0.27C11,27.6,10.92,27.68,10.79,27.82z"/>
	<path class="st0" d="M9.65,17.03c0-0.42,0-0.69,0-1.09c0.25,0.09,0.5,0.12,0.62,0.26c0.1,0.11,0.11,0.42,0.02,0.53
		C10.17,16.87,9.91,16.91,9.65,17.03z M9.84,16.74c0.04,0.02,0.07,0.04,0.11,0.06c0.08-0.11,0.21-0.22,0.21-0.34
		c0-0.11-0.14-0.23-0.21-0.34c-0.03,0.02-0.07,0.04-0.1,0.06C9.84,16.37,9.84,16.55,9.84,16.74z"/>
	<path class="st0" d="M24.99,23.61c-0.02,0.28-0.11,0.51-0.42,0.5c-0.28-0.01-0.39-0.21-0.39-0.47c0-0.27,0.09-0.49,0.41-0.48
		C24.89,23.16,24.96,23.37,24.99,23.61z M24.88,23.66c-0.13-0.15-0.21-0.25-0.29-0.35c-0.08,0.1-0.22,0.21-0.22,0.31
		c0,0.11,0.12,0.23,0.19,0.35C24.65,23.88,24.74,23.79,24.88,23.66z"/>
	<path class="st0" d="M7.31,30.64c-0.32-0.23-0.54-0.43-0.78,0c-0.02-0.04-0.05-0.08-0.07-0.12c0.09-0.25,0.18-0.51,0.29-0.75
		c0.01-0.03,0.23-0.01,0.25,0.03C7.12,30.03,7.19,30.28,7.31,30.64z"/>
	<path class="st0" d="M10.12,18.04c-0.15,0.08-0.26,0.14-0.38,0.2c0.13,0.07,0.26,0.14,0.46,0.25c-0.25,0-0.44,0-0.66,0
		c0-0.24-0.05-0.5,0.01-0.72c0.1-0.37,0.37-0.1,0.58-0.06c-0.13,0.03-0.26,0.06-0.39,0.1c-0.01,0.02-0.01,0.05-0.02,0.07
		C9.85,17.93,9.97,17.98,10.12,18.04z"/>
	<path class="st0" d="M13.21,30.61c-0.29-0.18-0.52-0.25-0.81-0.01c0.09-0.24,0.17-0.49,0.28-0.72c0.02-0.04,0.25-0.04,0.27,0
		C13.06,30.12,13.13,30.37,13.21,30.61z"/>
	<path class="st0" d="M7.28,18.24c0.14,0.04,0.29,0.07,0.5,0.13c-0.13-0.33-0.65-0.23-0.48-0.63c0.04-0.09,0.21-0.17,0.32-0.17
		c0.1,0,0.2,0.11,0.3,0.18c-0.02,0.02-0.04,0.05-0.05,0.07c-0.13-0.03-0.25-0.05-0.42-0.09c0.2,0.23,0.34,0.4,0.48,0.56
		c-0.09,0.07-0.18,0.2-0.27,0.2c-0.15,0-0.3-0.09-0.45-0.14C7.24,18.32,7.26,18.28,7.28,18.24z"/>
	<path class="st0" d="M26.17,23.18c0,0.23,0.03,0.48-0.02,0.7c-0.02,0.1-0.21,0.22-0.32,0.22c-0.12,0-0.32-0.11-0.34-0.2
		c-0.05-0.24-0.02-0.49-0.02-0.73c0.04,0,0.08,0,0.12,0c0.01,0.17,0,0.34,0.04,0.5c0.03,0.11,0.12,0.2,0.18,0.31
		c0.06-0.1,0.15-0.2,0.17-0.31c0.04-0.16,0.03-0.32,0.04-0.48C26.08,23.18,26.12,23.18,26.17,23.18z"/>
	<path class="st0" d="M23.22,23.28c0.14,0.33,0.64,0.23,0.47,0.62c-0.04,0.1-0.25,0.17-0.39,0.18c-0.09,0-0.18-0.13-0.27-0.21
		c0.02-0.02,0.04-0.04,0.06-0.07c0.13,0.04,0.26,0.08,0.45,0.14c-0.19-0.26-0.32-0.43-0.45-0.61c0.1-0.07,0.2-0.19,0.31-0.2
		c0.1-0.01,0.2,0.11,0.31,0.17c-0.02,0.03-0.03,0.06-0.05,0.09C23.54,23.36,23.42,23.33,23.22,23.28z"/>
	<path class="st0" d="M27.96,24.12c0-0.31,0-0.6,0-0.89c0.5-0.06,0.68,0.05,0.68,0.42C28.66,24.03,28.5,24.15,27.96,24.12z
		 M28.14,23.96c0.28,0.03,0.35-0.14,0.32-0.33c-0.02-0.11-0.14-0.2-0.22-0.29c-0.03,0.02-0.06,0.04-0.1,0.06
		C28.14,23.59,28.14,23.77,28.14,23.96z"/>
	<path class="st0" d="M8.61,28.17c-0.18,0-0.35,0-0.55,0c0-0.28,0-0.53,0-0.82c0.18,0,0.37,0,0.55,0c0,0.02,0.01,0.05,0.01,0.07
		c-0.12,0.04-0.24,0.07-0.45,0.14c0.2,0.08,0.32,0.12,0.51,0.19c-0.19,0.06-0.31,0.1-0.43,0.13c0,0.03,0,0.06,0.01,0.09
		c0.12,0.04,0.25,0.08,0.37,0.11C8.62,28.12,8.62,28.15,8.61,28.17z"/>
	<path class="st0" d="M10.78,25.51c-0.11-0.06-0.21-0.13-0.33-0.2c-0.22,0.15-0.23,0.38-0.11,0.54c0.06,0.08,0.3,0.01,0.5,0.01
		c-0.08,0.23-0.27,0.32-0.45,0.24c-0.14-0.07-0.31-0.27-0.31-0.41c0-0.17,0.13-0.4,0.28-0.48C10.55,25.1,10.76,25.2,10.78,25.51z"/>
	<path class="st0" d="M12.08,17.92c0.12,0.04,0.24,0.08,0.37,0.12c-0.12,0.09-0.24,0.17-0.35,0.25c0.12,0.05,0.24,0.11,0.36,0.16
		c0,0.02,0,0.04,0.01,0.07c-0.17,0.01-0.35,0.02-0.56,0.04c0-0.32,0-0.6,0-0.9c0.18,0,0.36,0,0.54,0c0,0.02,0.01,0.05,0.01,0.07
		c-0.12,0.03-0.24,0.06-0.35,0.09C12.1,17.85,12.09,17.88,12.08,17.92z"/>
	<path class="st0" d="M8.44,23.03c0.2,0,0.37,0,0.54,0c0,0.02,0.01,0.05,0.01,0.07c-0.12,0.03-0.23,0.06-0.47,0.12
		c0.21,0.1,0.33,0.15,0.45,0.21c-0.11,0.08-0.23,0.15-0.34,0.23c0.12,0.05,0.24,0.11,0.36,0.16c0,0.02,0,0.04,0,0.06
		c-0.18,0.01-0.35,0.02-0.55,0.03C8.44,23.61,8.44,23.33,8.44,23.03z"/>
	<path class="st0" d="M6.15,16.86c0-0.26,0-0.54,0-0.87c0.14,0.01,0.28-0.01,0.41,0.03c0.07,0.02,0.15,0.13,0.16,0.21
		c0.01,0.08-0.04,0.19-0.1,0.25C6.49,16.61,6.34,16.72,6.15,16.86z"/>
	<path class="st0" d="M9.04,17.9c-0.1-0.06-0.19-0.12-0.39-0.25c0,0.27,0,0.47,0,0.66c0.14-0.02,0.27-0.03,0.41-0.05
		c0.02,0.02,0.04,0.03,0.07,0.05c-0.1,0.07-0.19,0.19-0.3,0.21c-0.25,0.05-0.39-0.1-0.43-0.34c-0.04-0.25-0.02-0.51,0.28-0.59
		C8.88,17.52,9.04,17.6,9.04,17.9z"/>
	<path class="st0" d="M9.23,30.17c-0.18,0.05-0.3,0.08-0.42,0.11c-0.01,0.03-0.01,0.06-0.02,0.09c0.14,0.05,0.27,0.1,0.41,0.15
		c0,0.02,0,0.04,0.01,0.06c-0.18,0.01-0.35,0.02-0.56,0.03c0-0.3,0-0.56,0-0.85c0.18,0,0.36,0,0.54,0c0,0.02,0.01,0.05,0.01,0.07
		c-0.13,0.03-0.25,0.06-0.38,0.09c-0.01,0.03-0.01,0.05-0.02,0.08C8.93,30.04,9.05,30.09,9.23,30.17z"/>
	<path class="st0" d="M9.55,27.64c-0.1-0.06-0.19-0.12-0.37-0.22c0,0.26,0,0.45,0,0.7c0.17-0.08,0.28-0.13,0.47-0.22
		c-0.11,0.32-0.3,0.35-0.49,0.3c-0.27-0.07-0.32-0.32-0.24-0.53c0.05-0.14,0.22-0.27,0.36-0.32c0.08-0.03,0.23,0.12,0.34,0.19
		C9.6,27.57,9.58,27.6,9.55,27.64z"/>
	<path class="st0" d="M6.32,29.97c-0.1-0.05-0.2-0.11-0.4-0.21c-0.01,0.22-0.01,0.39-0.02,0.57c0.13,0,0.27,0,0.52,0
		c-0.14,0.1-0.25,0.23-0.32,0.21c-0.15-0.05-0.39-0.15-0.4-0.26c-0.02-0.19,0.05-0.45,0.18-0.56C6.05,29.57,6.27,29.67,6.32,29.97z"
		/>
	<path class="st0" d="M10.49,27.41c-0.48,0.14-0.06,0.63-0.36,0.84c-0.07-0.29-0.14-0.56-0.2-0.84
		C10.05,27.41,10.27,27.41,10.49,27.41z"/>
	<path class="st0" d="M29.08,18.49c0.13,0.03,0.23,0.06,0.34,0.09c0,0.02-0.01,0.05-0.01,0.07c-0.17,0-0.33,0-0.55,0
		c0.01-0.3,0.03-0.59,0.04-0.88c0.05,0,0.09,0,0.14,0C29.06,18,29.07,18.23,29.08,18.49z"/>
	<path class="st0" d="M7.83,23.91c-0.27-0.25,0.18-0.73-0.35-0.89c0.22,0,0.44,0,0.59,0C8,23.3,7.92,23.6,7.83,23.91z"/>
	<path class="st0" d="M30.13,18.5c0.13,0.03,0.23,0.06,0.34,0.09c0,0.03,0,0.06,0,0.09c-0.17,0.01-0.33,0.02-0.51,0.03
		c0-0.33,0-0.63,0-0.93c0.04,0,0.08,0,0.12-0.01C30.09,18,30.11,18.24,30.13,18.5z"/>
	<path class="st0" d="M6.78,27.32c0,0.28,0,0.57,0,0.85c-0.03,0-0.07,0-0.1,0c0-0.28,0-0.56,0-0.84
		C6.71,27.32,6.75,27.32,6.78,27.32z"/>
	<path d="M14.97,22.54c0-1.75,0-3.41,0-5.09c2.9,0,5.79,0,8.7,0c0,1.72,0,3.4,0,5.09C20.77,22.54,17.9,22.54,14.97,22.54z
		 M18.33,18.55c0.02,0.03,0.05,0.05,0.07,0.08c0.24-0.37,0.48-0.2,0.79,0.02c-0.11-0.35-0.17-0.61-0.28-0.85
		c-0.02-0.05-0.27-0.07-0.28-0.04C18.51,18.01,18.42,18.28,18.33,18.55z M20.35,17.72c-0.05-0.02-0.1-0.04-0.15-0.06
		c-0.11,0.1-0.22,0.19-0.33,0.28c-0.04-0.09-0.08-0.18-0.12-0.27c-0.03,0.01-0.06,0.01-0.09,0.02c0,0.3,0,0.6,0,0.9
		c0.03,0.01,0.05,0.01,0.08,0.02c0.04-0.11,0.08-0.21,0.12-0.32c0.13,0.13,0.25,0.24,0.37,0.35c0.03-0.02,0.07-0.04,0.1-0.06
		C20.15,18.29,19.86,18.02,20.35,17.72z M21.37,17.8c0-0.03-0.01-0.06-0.01-0.09c-0.18,0-0.35,0-0.55,0c0,0.3,0,0.59,0,0.87
		c0.2,0,0.38,0,0.64,0c-0.21-0.11-0.33-0.18-0.46-0.24c0.12-0.07,0.23-0.14,0.36-0.21c-0.14-0.06-0.25-0.12-0.46-0.21
		C21.14,17.86,21.25,17.83,21.37,17.8z M17.81,17.69c-0.14,0-0.36,0-0.59,0c0.5,0.17,0.08,0.66,0.36,0.93
		C17.67,18.3,17.74,18.01,17.81,17.69z"/>
	<path d="M8.52,25.91c0.06-0.22,0.11-0.4,0.16-0.58c0.09,0.08,0.24,0.15,0.25,0.24C8.98,25.79,8.91,25.96,8.52,25.91z"/>
	<path d="M27.63,18.23c0.14-0.16,0.24-0.26,0.34-0.36c0.07,0.11,0.19,0.23,0.19,0.34c0,0.11-0.13,0.22-0.2,0.33
		C27.87,18.45,27.78,18.37,27.63,18.23z"/>
	<path d="M13.84,16.49c-0.13,0.14-0.21,0.23-0.3,0.32c-0.07-0.11-0.19-0.22-0.19-0.33c0-0.11,0.13-0.22,0.2-0.32
		C13.63,16.26,13.71,16.36,13.84,16.49z"/>
	<path d="M6.02,27.42c0.06,0.1,0.18,0.21,0.18,0.31c0,0.11-0.1,0.21-0.16,0.32C6,28.04,5.96,28.02,5.92,28.01c0-0.17,0-0.34,0-0.52
		C5.96,27.47,5.99,27.44,6.02,27.42z"/>
	<path d="M12.18,25.68c-0.15,0.14-0.25,0.23-0.34,0.32c-0.08-0.11-0.22-0.22-0.23-0.34c-0.01-0.1,0.14-0.21,0.22-0.32
		C11.93,25.44,12.03,25.54,12.18,25.68z"/>
	<path d="M7.44,25.62c0.15-0.14,0.25-0.23,0.35-0.33C7.87,25.4,8,25.51,8,25.61c-0.01,0.12-0.14,0.23-0.22,0.34
		C7.68,25.86,7.59,25.77,7.44,25.62z"/>
	<path d="M5.71,23.7c0-0.19,0-0.37,0-0.56c0.04-0.02,0.07-0.04,0.11-0.06c0.08,0.11,0.21,0.23,0.21,0.34c0,0.12-0.13,0.24-0.2,0.36
		C5.8,23.75,5.75,23.73,5.71,23.7z"/>
	<path d="M9.04,16.46c-0.13,0.14-0.22,0.23-0.3,0.33c-0.07-0.11-0.2-0.22-0.2-0.33c0-0.11,0.13-0.22,0.21-0.32
		C8.82,16.22,8.91,16.32,9.04,16.46z"/>
	<path d="M10.79,27.82c0.13-0.14,0.21-0.22,0.29-0.31c0.07,0.09,0.21,0.18,0.21,0.27c0,0.11-0.12,0.22-0.19,0.33
		C11.01,28.02,10.93,27.94,10.79,27.82z"/>
	<path d="M9.84,16.74c0-0.18,0-0.37,0-0.55c0.03-0.02,0.07-0.04,0.1-0.06c0.08,0.11,0.21,0.22,0.21,0.34c0,0.11-0.13,0.22-0.21,0.34
		C9.91,16.78,9.87,16.76,9.84,16.74z"/>
	<path d="M24.88,23.66c-0.14,0.13-0.23,0.22-0.32,0.31c-0.07-0.12-0.19-0.23-0.19-0.35c0-0.11,0.14-0.21,0.22-0.31
		C24.67,23.41,24.75,23.5,24.88,23.66z"/>
	<path d="M28.14,23.96c0-0.19,0-0.38,0-0.56c0.03-0.02,0.06-0.04,0.1-0.06c0.08,0.1,0.2,0.19,0.22,0.29
		C28.49,23.83,28.42,23.99,28.14,23.96z"/>
	<path class="st0" d="M18.33,18.55c0.09-0.27,0.18-0.54,0.3-0.79c0.01-0.03,0.26-0.01,0.28,0.04c0.1,0.24,0.17,0.5,0.28,0.85
		c-0.31-0.22-0.55-0.39-0.79-0.02C18.37,18.6,18.35,18.58,18.33,18.55z"/>
	<path class="st0" d="M20.35,17.72c-0.49,0.3-0.2,0.57-0.02,0.85c-0.03,0.02-0.07,0.04-0.1,0.06c-0.12-0.11-0.23-0.22-0.37-0.35
		c-0.04,0.1-0.08,0.21-0.12,0.32c-0.03-0.01-0.05-0.01-0.08-0.02c0-0.3,0-0.6,0-0.9c0.03-0.01,0.06-0.01,0.09-0.02
		c0.04,0.09,0.08,0.18,0.12,0.27c0.11-0.09,0.22-0.19,0.33-0.28C20.25,17.68,20.3,17.7,20.35,17.72z"/>
	<path class="st0" d="M21.37,17.8c-0.12,0.03-0.24,0.06-0.48,0.12c0.21,0.1,0.33,0.15,0.46,0.21c-0.13,0.07-0.24,0.14-0.36,0.21
		c0.12,0.07,0.25,0.13,0.46,0.24c-0.26,0-0.44,0-0.64,0c0-0.29,0-0.57,0-0.87c0.2,0,0.37,0,0.55,0
		C21.37,17.74,21.37,17.77,21.37,17.8z"/>
	<path class="st0" d="M17.81,17.69c-0.08,0.32-0.15,0.61-0.23,0.93c-0.28-0.27,0.14-0.76-0.36-0.93
		C17.45,17.69,17.68,17.69,17.81,17.69z"/>
</g>
</svg>
